# xmcd
#
# Track frame offsets:
#	150
#	15025
#	28488
#	40883
#	53245
#	66867
#	82377
#	95277
#	109147
#	124711
#	139551
#	152216
#	168006
#	182530
#	195279
#
# Disc length: 2771 seconds
#
# Revision: 1
# Processed by: cddbd v1.5.2PL0 Copyright (c) Steve Scherf et al.
# Submitted via: audiograbber 1.83.01
#
DISCID=bc0ad10f
DTITLE=Scooter Lee - Dont Mind If I Do
DYEAR=1900
DGENRE=Country
TTITLE0=We All Get Lucky Sometimes
TTITLE1=Storms Of Love
TTITLE2=It Don´t Get Better Than This
TTITLE3=Don´t Mind If I Do
TTITLE4=Every Little Thing
TTITLE5=I Couldn´t Leave You If I Tried
TTITLE6=One Step Away
TTITLE7=Let´s Go To Louisiana
TTITLE8=Stars On The Water
TTITLE9=Silver Wings
TTITLE10=Hole In My Pocket
TTITLE11=Just Call Me Lonesome
TTITLE12=Sweet Dreams
TTITLE13=Hinges On The Door
TTITLE14=Overnight Success
EXTD=
EXTT0=
EXTT1=
EXTT2=
EXTT3=
EXTT4=
EXTT5=
EXTT6=
EXTT7=
EXTT8=
EXTT9=
EXTT10=
EXTT11=
EXTT12=
EXTT13=
EXTT14=
PLAYORDER=
